<?xml version="1.0" standalone="no"?>
<!DOCTYPE svg PUBLIC "-//W3C//DTD SVG 20010904//EN"
 "http://www.w3.org/TR/2001/REC-SVG-20010904/DTD/svg10.dtd">
<svg version="1.0" xmlns="http://www.w3.org/2000/svg"
 width="4000.000000pt" height="4000.000000pt" viewBox="0 0 4000.000000 4000.000000"
 preserveAspectRatio="xMidYMid meet">

<g transform="translate(0.000000,4000.000000) scale(0.100000,-0.100000)"
fill="#000000" stroke="none">
<path d="M13954 33636 c-118 -38 -247 -179 -340 -372 -32 -66 -37 -72 -72 -78
-143 -26 -714 -170 -957 -242 -1684 -502 -2751 -1152 -3131 -1907 -73 -143
-106 -257 -107 -357 0 -234 138 -406 526 -655 293 -189 483 -318 582 -395 151
-117 344 -312 591 -595 240 -275 404 -445 519 -535 44 -35 80 -66 80 -71 0 -9
-172 -212 -480 -564 -525 -603 -672 -825 -706 -1071 -13 -94 7 -218 49 -307
82 -173 263 -333 525 -463 53 -27 97 -52 97 -56 0 -4 -32 -56 -70 -115 -174
-267 -260 -495 -260 -690 0 -283 167 -447 609 -598 74 -25 136 -47 138 -49 2
-2 -21 -86 -51 -187 -288 -958 -515 -1965 -597 -2654 -26 -217 -37 -643 -19
-782 46 -374 172 -559 414 -609 68 -15 166 -10 243 12 20 5 21 3 17 -33 -25
-236 -47 -838 -41 -1123 6 -280 21 -412 58 -522 15 -46 20 -76 15 -113 -42
-362 -60 -767 -53 -1215 6 -403 9 -455 52 -970 41 -497 48 -656 42 -960 -10
-460 -41 -714 -154 -1270 -51 -255 -55 -280 -45 -340 34 -229 230 -361 620
-419 68 -10 125 -21 128 -23 7 -8 -39 -130 -157 -411 -61 -143 -127 -313 -149
-376 -107 -320 -91 -518 52 -646 131 -118 290 -144 574 -96 73 12 147 21 165
19 33 -3 33 -3 72 -123 349 -1092 505 -2240 436 -3210 -16 -222 1 -197 -147
-229 -70 -15 -201 -52 -290 -82 -282 -92 -498 -213 -658 -366 -104 -100 -162
-178 -213 -290 -66 -144 -76 -193 -75 -368 1 -134 5 -168 28 -253 44 -166 99
-268 201 -376 171 -182 424 -275 887 -328 186 -21 900 -27 1508 -14 383 8 458
12 538 30 176 38 320 96 457 185 85 56 271 246 334 341 62 94 149 267 190 380
17 44 31 78 31 75 1 -3 4 -18 6 -35 16 -111 29 -168 55 -237 155 -401 636
-662 1349 -733 192 -19 969 -19 1113 0 71 9 116 10 165 3 101 -15 771 -21 972
-8 580 36 982 177 1223 430 89 92 146 187 187 307 102 305 68 613 -94 854 -19
29 -34 53 -33 53 1 1 159 0 350 -2 l348 -3 -24 -42 c-39 -68 -94 -215 -113
-307 -14 -62 -18 -126 -18 -235 1 -134 4 -160 28 -240 35 -114 92 -224 160
-306 229 -279 671 -457 1259 -509 142 -13 917 -12 1037 1 256 28 551 114 785
228 232 115 403 234 586 408 254 244 412 479 676 1008 320 638 555 1294 705
1966 40 178 44 189 65 189 13 0 121 -9 241 -20 328 -30 468 -40 777 -57 210
-11 693 -8 837 6 245 23 346 53 426 126 49 44 74 83 97 150 35 105 13 291 -54
453 l-30 72 222 0 c122 1 249 3 282 6 322 26 439 42 615 80 466 103 750 290
824 543 36 122 4 261 -83 372 l-29 35 137 43 c75 24 215 72 311 108 878 327
1434 713 1640 1138 205 421 46 741 -413 834 -48 9 -88 21 -88 25 -1 4 42 64
94 134 439 590 769 1231 902 1752 102 402 108 776 18 1090 -73 257 -214 409
-453 492 -67 23 -216 48 -287 48 l-53 0 -1 263 c-1 144 -3 276 -4 292 -2 17
-6 89 -9 162 -22 487 -101 980 -206 1278 -102 289 -249 485 -426 571 -69 33
-89 38 -174 42 -75 3 -113 0 -178 -16 -96 -25 -222 -81 -320 -145 l-70 -45
-144 137 c-568 545 -1137 967 -1666 1235 -440 222 -859 345 -1184 347 -239 1
-388 -104 -464 -328 -23 -68 -27 -99 -31 -233 -3 -109 0 -184 11 -255 8 -54
14 -100 13 -101 -1 -1 -148 -4 -327 -7 -179 -4 -336 -8 -350 -11 -14 -2 -68
-7 -120 -11 -284 -19 -693 -88 -951 -159 -589 -162 -953 -445 -1050 -814 -37
-140 -10 -273 86 -427 52 -85 183 -227 280 -306 l63 -51 -29 -86 c-64 -187
-114 -415 -143 -647 -26 -205 -31 -292 -30 -555 2 -358 29 -525 114 -708 203
-434 621 -528 977 -220 40 35 107 94 150 131 153 135 340 244 518 302 426 139
924 8 1260 -330 101 -102 147 -174 205 -322 80 -205 114 -391 114 -633 0 -268
-43 -492 -144 -754 -252 -651 -858 -1273 -1661 -1705 l-97 -51 -32 137 c-260
1111 -733 2186 -1433 3258 -162 247 -242 361 -622 885 -803 1105 -1157 1661
-1500 2355 -177 357 -302 662 -510 1235 -92 254 -103 295 -110 375 -50 663
-305 1830 -643 2946 l-29 96 101 33 c421 138 606 289 647 527 32 192 -67 494
-259 782 -31 47 -60 91 -65 98 -4 7 29 30 100 68 176 93 271 160 373 264 73
73 104 114 133 171 142 287 68 539 -295 993 -106 133 -135 167 -573 672 -132
152 -243 282 -247 289 -5 8 16 30 60 61 101 74 335 312 568 580 402 462 526
568 1094 931 392 250 545 411 581 609 53 288 -234 767 -682 1140 -485 403
-1194 762 -2114 1071 -398 133 -978 293 -1326 365 l-106 22 -38 76 c-118 240
-275 381 -423 381 -116 0 -235 -53 -315 -140 -94 -101 -154 -248 -202 -491
-14 -74 -28 -144 -31 -156 -4 -19 -12 -14 -77 50 -163 161 -319 181 -433 54
-56 -62 -138 -228 -193 -388 -47 -140 -128 -457 -171 -669 -17 -85 -33 -164
-35 -176 -4 -20 -12 -21 -202 -27 -294 -9 -565 -52 -860 -137 l-142 -41 -118
36 c-308 91 -656 145 -932 145 l-128 0 -38 188 c-139 690 -295 1074 -460 1138
-100 38 -213 -3 -336 -122 l-75 -74 -32 158 c-75 381 -180 557 -370 624 -73
25 -184 32 -238 14z m102 -298 c-9 15 8 16 37 1 51 -26 120 -134 130 -203 1
-14 6 -28 10 -32 4 -4 7 -11 7 -16 0 -5 -16 7 -36 26 -20 20 -45 38 -56 42
-33 10 -104 -5 -142 -31 -19 -13 -37 -21 -40 -19 -3 2 -4 1 -1 -2 2 -4 -4 -19
-15 -33 -32 -46 -52 -108 -64 -199 l-11 -87 -70 -13 c-382 -71 -569 -115 -855
-198 -309 -90 -719 -230 -920 -314 -25 -10 -76 -31 -115 -45 -38 -15 -112 -45
-163 -66 -51 -22 -98 -37 -104 -33 -6 4 -8 3 -5 -3 6 -9 -161 -87 -188 -88 -5
-1 -21 -8 -35 -17 -14 -9 -80 -42 -146 -73 -67 -30 -197 -94 -289 -141 -91
-46 -171 -81 -177 -78 -6 4 -8 3 -5 -3 4 -6 -17 -23 -46 -38 -138 -74 -357
-205 -510 -307 -82 -54 -154 -95 -159 -91 -6 3 -8 2 -5 -4 3 -5 -17 -30 -46
-55 -72 -61 -75 -63 -100 -41 l-22 18 20 -23 20 -24 -69 -63 c-38 -35 -74 -61
-79 -58 -6 4 -7 1 -2 -6 7 -13 -40 -71 -57 -71 -11 0 59 111 80 128 9 6 13 12
9 12 -4 0 0 11 9 25 9 14 21 22 27 18 5 -3 7 -1 4 5 -4 5 3 22 15 37 140 167
321 341 341 328 6 -3 7 -1 4 4 -9 15 60 66 76 57 6 -4 9 -4 5 0 -13 15 126
121 144 110 6 -4 8 -3 4 4 -8 13 32 41 229 159 187 112 265 155 265 147 0 -4
8 0 18 8 26 24 122 69 131 63 5 -2 15 2 22 11 12 15 61 44 74 44 3 0 3 -5 -1
-12 -4 -7 -3 -8 5 -4 6 4 9 11 6 16 -3 5 5 12 17 16 13 4 56 22 96 41 40 18
78 30 84 27 6 -4 8 -3 5 3 -6 10 227 109 250 107 7 -1 11 1 9 5 -4 6 152 67
164 64 3 -1 10 3 16 8 34 28 850 297 862 284 3 -3 10 -1 17 5 17 14 345 101
356 95 5 -4 9 -2 9 3 0 7 121 41 170 47 8 1 22 5 30 8 28 11 270 66 312 72 15
2 37 7 49 10 16 6 20 4 13 -6 -7 -12 -5 -12 9 0 9 7 40 18 69 25 43 9 54 16
56 34 2 13 8 20 14 16 6 -4 8 -2 5 3 -9 14 17 76 27 66 4 -4 4 0 1 9 -7 18 28
91 39 81 4 -4 4 1 0 11 -6 15 -4 17 6 11 9 -5 11 -4 6 4 -11 18 33 83 52 76
12 -4 12 -3 3 8 -9 11 -2 24 30 61 35 40 44 45 57 34 12 -10 14 -10 8 0z
m5319 -13 c28 -27 36 -56 10 -35 -24 20 -18 5 7 -16 13 -12 18 -13 13 -4 -6
11 -3 10 11 -2 23 -20 69 -98 58 -98 -4 0 0 -6 10 -13 9 -7 18 -19 20 -27 1
-8 11 -33 23 -55 11 -22 28 -63 38 -92 17 -49 21 -52 59 -58 238 -38 1036
-241 1019 -260 -4 -4 -2 -5 5 -1 13 8 119 -19 138 -35 6 -5 13 -7 16 -4 2 2
87 -22 189 -55 101 -33 190 -60 197 -60 7 0 10 -5 6 -12 -4 -6 -3 -8 3 -5 11
7 193 -51 193 -61 0 -4 10 -8 23 -8 12 -1 40 -10 62 -19 46 -21 50 -22 71 -24
9 0 12 -6 8 -13 -4 -6 -3 -8 4 -4 9 6 59 -11 72 -24 3 -3 15 -6 27 -7 13 -2
42 -11 65 -22 24 -11 72 -32 108 -46 36 -15 74 -34 84 -43 11 -10 16 -11 12
-5 -5 9 -2 11 8 7 9 -3 14 -9 12 -13 -2 -3 6 -7 17 -7 34 -3 462 -210 588
-285 30 -17 74 -43 99 -57 101 -57 165 -99 165 -110 0 -5 4 -14 9 -19 5 -5 6
-2 1 6 -5 9 -3 12 6 9 8 -3 13 -11 11 -17 -1 -7 2 -9 8 -6 19 12 278 -178 272
-199 -2 -6 0 -8 3 -4 11 10 96 -62 88 -75 -3 -6 -1 -7 6 -3 16 10 225 -199
215 -215 -4 -7 -3 -9 3 -6 16 10 126 -137 187 -248 29 -52 30 -53 -37 25 -12
14 -21 28 -19 32 1 5 -2 7 -7 5 -5 -1 -35 23 -68 53 -93 89 -238 201 -385 299
-75 50 -140 91 -144 91 -4 0 -23 12 -43 27 -20 16 -40 28 -46 28 -5 1 -9 6 -8
13 2 7 -4 9 -14 5 -12 -5 -14 -3 -8 7 5 9 4 11 -4 6 -6 -4 -33 5 -59 21 -26
16 -59 35 -74 42 -15 8 -25 19 -21 24 3 6 1 7 -5 3 -6 -3 -51 16 -100 43 -108
60 -638 320 -662 325 -19 4 -70 30 -70 36 0 3 -6 7 -14 7 -7 0 -83 30 -169 66
-85 37 -161 67 -167 67 -6 0 -8 5 -4 12 4 7 3 8 -5 4 -9 -6 -111 29 -216 75
-48 21 -603 216 -639 224 -10 2 -80 22 -155 44 -75 22 -172 49 -216 61 -44 12
-89 29 -99 38 -11 9 -16 11 -12 5 9 -16 -4 -16 -41 -2 -15 7 -37 13 -49 14
-11 2 -83 17 -160 34 -76 16 -195 40 -264 51 -69 12 -128 24 -132 27 -5 2 -8
25 -8 51 0 26 -9 79 -19 117 -11 38 -17 74 -14 79 3 5 1 6 -5 2 -6 -3 -13 2
-17 13 -9 31 -80 89 -122 100 -64 18 -92 12 -140 -32 -13 -11 -26 -18 -29 -14
-8 7 31 112 58 155 17 28 22 31 37 20 14 -12 15 -11 2 5 -16 20 -9 30 31 52
36 20 67 17 93 -10z m682 -1227 c49 -51 67 -85 82 -156 14 -66 14 -408 1 -635
-13 -208 -49 -680 -53 -684 -2 -1 -32 31 -67 72 -91 108 -329 338 -440 427
-103 81 -241 176 -333 228 l-57 32 31 37 c196 226 474 503 613 610 51 39 164
111 176 111 3 0 24 -19 47 -42z m-6618 5 c91 -52 219 -161 382 -323 164 -163
359 -375 359 -388 -1 -4 -46 -33 -101 -66 -215 -126 -484 -351 -679 -569 -57
-64 -105 -116 -106 -114 -5 5 -44 544 -55 757 -14 269 -7 513 15 586 19 60 88
144 118 144 12 0 42 -12 67 -27z m2255 -690 c4 -4 24 -6 44 -5 76 6 435 -45
426 -59 -3 -5 2 -6 10 -3 20 8 216 -37 216 -49 0 -4 4 -5 10 -2 10 6 177 -43
242 -71 34 -15 39 -15 92 5 31 11 56 18 56 15 0 -4 6 -2 13 4 13 11 170 59
217 67 14 3 52 11 85 20 78 19 263 52 340 60 33 3 77 9 99 12 31 4 37 2 30 -8
-6 -10 -3 -10 11 1 15 12 60 15 263 14 168 0 247 -3 249 -11 2 -6 12 -9 22 -6
68 18 631 -115 631 -148 0 -6 4 -8 9 -5 13 8 73 -19 64 -29 -5 -4 -3 -5 4 -1
16 9 94 -24 86 -37 -3 -5 -1 -7 5 -3 12 7 64 -13 57 -23 -2 -4 4 -7 14 -7 22
0 151 -76 145 -86 -3 -4 1 -5 9 -3 7 3 21 -3 31 -14 10 -11 22 -18 27 -16 4 3
25 -12 46 -32 20 -21 42 -37 48 -36 6 2 29 -15 53 -36 23 -21 42 -37 42 -34 0
10 109 -87 218 -194 75 -74 111 -117 106 -125 -4 -7 -3 -10 1 -5 11 10 46 -23
38 -36 -3 -5 -2 -7 4 -4 12 8 106 -100 98 -112 -3 -5 0 -13 6 -17 8 -4 9 -3 5
4 -4 7 -4 12 1 12 4 0 26 -25 48 -55 22 -30 44 -54 48 -55 5 0 5 -5 2 -10 -5
-8 -12 -7 -23 2 -15 12 -16 11 -3 -4 7 -10 18 -15 23 -12 10 6 48 -23 48 -37
0 -4 10 -19 23 -33 12 -13 27 -30 32 -38 69 -89 84 -112 78 -121 -3 -5 -1 -7
4 -4 13 8 46 -40 38 -53 -3 -5 0 -8 7 -5 12 4 103 -116 103 -137 0 -5 7 -15
16 -21 9 -7 32 -37 52 -67 41 -61 140 -204 227 -325 67 -93 98 -149 56 -100
-14 17 -25 33 -26 37 0 4 -7 16 -15 25 -8 10 -78 108 -156 218 -79 110 -180
247 -227 305 -46 58 -86 111 -89 118 -3 8 -15 24 -27 36 -77 82 -93 105 -82
116 8 8 7 10 -4 6 -16 -6 -147 129 -142 146 1 5 -2 7 -7 4 -12 -8 -42 34 -35
46 3 5 2 7 -3 6 -11 -3 -53 25 -53 36 0 5 9 1 20 -9 11 -10 20 -16 20 -13 0 2
-12 15 -27 29 -14 13 -23 18 -19 12 4 -7 2 -13 -3 -13 -10 0 -15 14 -12 33 1
5 -2 6 -7 3 -12 -7 -103 74 -96 86 3 4 1 7 -4 6 -9 -3 -194 140 -200 155 -2 4
-7 7 -12 7 -17 0 -199 128 -192 135 4 5 1 5 -5 1 -17 -9 -55 12 -47 26 4 6 3
8 -3 5 -14 -9 -166 66 -156 76 4 5 -1 5 -11 1 -15 -6 -17 -4 -11 6 5 8 4 11
-2 7 -6 -4 -62 13 -125 37 -214 82 -443 138 -693 167 -130 16 -499 16 -645 0
-264 -27 -573 -93 -779 -166 -31 -11 -47 -12 -57 -5 -8 8 -14 8 -19 0 -4 -6
-14 -8 -24 -5 -68 28 -305 92 -441 120 -601 122 -1184 86 -1681 -104 -74 -29
-139 -53 -145 -54 -7 -2 -18 -8 -25 -14 -13 -10 -128 -66 -139 -68 -29 -5
-314 -203 -411 -287 -42 -37 -80 -64 -84 -60 -4 4 -5 3 -3 -3 1 -5 -44 -55
-102 -110 -58 -55 -111 -109 -119 -120 -38 -50 -104 -114 -114 -108 -6 3 -7 1
-3 -5 8 -14 -24 -53 -37 -45 -6 3 -7 2 -4 -4 3 -5 -20 -41 -51 -80 -54 -67
-77 -96 -221 -285 -32 -42 -62 -74 -66 -70 -5 4 -5 1 -1 -5 4 -8 -3 -23 -18
-38 -14 -14 -23 -25 -20 -25 2 0 -24 -39 -59 -87 -34 -49 -89 -127 -122 -175
-32 -49 -62 -88 -67 -88 -4 0 -8 -6 -8 -12 -1 -17 -39 -67 -40 -51 0 6 5 15
10 18 6 4 8 10 6 14 -9 14 25 111 36 105 6 -4 8 -3 5 3 -7 12 100 169 113 166
5 -2 7 3 4 10 -2 7 9 27 25 45 17 17 28 32 25 32 -2 0 8 18 22 40 15 22 31 37
37 33 5 -3 7 -2 4 4 -9 14 42 85 55 77 7 -4 8 -3 4 4 -9 16 52 104 66 96 7 -4
8 -2 4 5 -10 15 62 113 76 104 7 -3 8 -1 4 5 -9 15 43 84 57 75 6 -3 7 -1 3 5
-11 19 137 210 158 204 6 -2 8 0 4 3 -11 12 11 46 25 39 7 -4 9 -3 4 1 -10 11
23 46 36 38 6 -3 7 -1 3 6 -10 15 72 113 86 104 6 -3 8 -2 5 4 -7 12 79 109
94 105 6 -1 8 1 5 6 -6 10 130 148 142 145 4 -2 7 1 7 6 0 23 203 194 218 184
6 -3 7 -1 3 5 -10 17 13 25 32 10 15 -12 16 -11 3 4 -11 15 -11 19 5 25 11 4
24 13 30 21 7 9 16 12 24 7 9 -5 11 -4 6 4 -4 6 0 14 11 18 10 3 26 13 35 20
9 8 22 12 29 7 8 -4 10 -3 5 4 -6 10 44 44 60 41 4 0 10 3 13 8 13 20 120 70
125 59 2 -6 5 -3 5 6 1 11 8 16 21 13 13 -3 18 0 14 7 -5 8 -1 9 10 5 9 -4 15
-3 11 2 -3 5 39 26 92 47 54 20 113 43 132 51 19 7 36 11 39 8 3 -3 10 -1 16
4 33 27 377 95 556 110 134 11 374 13 384 4z m1096 -833 c92 -15 203 -72 267
-137 98 -100 160 -268 184 -498 18 -164 5 -543 -30 -926 -45 -490 -54 -654
-48 -869 6 -221 22 -330 71 -472 58 -171 146 -287 289 -382 93 -62 151 -89
395 -187 213 -85 320 -139 442 -220 171 -115 312 -267 434 -471 132 -221 190
-427 184 -653 l-3 -130 -315 -316 c-402 -404 -531 -507 -760 -606 -235 -101
-514 -94 -733 19 -120 62 -246 190 -310 315 l-48 92 3 156 3 156 66 22 c97 33
172 82 260 172 152 155 285 341 365 509 55 118 76 201 77 306 2 101 -18 147
-93 220 -185 180 -672 264 -1105 190 -263 -45 -447 -140 -523 -268 -25 -43
-27 -55 -26 -152 0 -87 5 -119 27 -183 63 -183 180 -366 367 -576 82 -92 163
-157 240 -192 l50 -23 0 -188 c0 -212 0 -214 -86 -334 -67 -95 -163 -176 -267
-228 -131 -65 -203 -80 -372 -80 -153 1 -237 17 -357 71 -225 101 -333 187
-745 597 l-343 340 0 124 c0 86 6 155 21 225 62 304 272 638 524 831 148 114
253 170 519 276 242 97 300 124 393 186 143 95 231 211 289 382 49 142 65 251
71 472 6 216 -3 387 -48 870 -36 384 -48 771 -30 930 43 376 175 570 427 624
83 17 185 20 274 6z m-2143 -326 c254 -53 458 -225 599 -507 61 -122 68 -169
34 -225 -25 -41 -76 -72 -118 -72 -19 0 -72 13 -118 30 -148 52 -290 76 -634
105 -351 30 -463 60 -517 138 -25 36 -28 49 -28 116 1 96 31 159 119 246 163
163 401 223 663 169z m4299 0 c311 -68 534 -382 388 -543 -66 -74 -154 -94
-559 -131 -280 -25 -427 -50 -563 -95 -121 -41 -157 -43 -202 -12 -84 56 -92
117 -35 242 193 420 569 628 971 539z m-3976 -1563 c64 -45 102 -147 102 -277
0 -139 -38 -256 -108 -333 -47 -53 -82 -71 -135 -71 -124 0 -206 232 -154 435
53 208 188 320 295 246z m3585 0 c17 -10 47 -39 67 -66 123 -163 129 -450 11
-573 -41 -44 -43 -44 -96 -40 -65 5 -103 30 -146 94 -111 168 -118 432 -14
554 51 60 109 70 178 31z m-6531 -390 c-25 -36 -40 -48 -52 -45 -12 4 -13 3
-4 -3 10 -8 8 -15 -9 -36 -11 -15 -25 -24 -31 -21 -7 4 -8 2 -4 -5 9 -14 -113
-163 -127 -154 -5 3 -7 2 -4 -4 9 -14 -22 -55 -35 -47 -6 4 -8 3 -5 -3 8 -12
-111 -155 -123 -148 -5 3 -12 0 -16 -6 -5 -8 -3 -9 6 -4 27 16 3 -17 -79 -110
-45 -52 -87 -93 -91 -90 -4 3 -7 -3 -6 -13 0 -9 -5 -16 -12 -14 -8 1 -11 -1
-8 -6 8 -13 -114 -143 -126 -136 -6 4 -8 2 -4 -4 3 -6 -38 -61 -91 -123 -54
-61 -109 -126 -123 -143 -13 -17 -56 -69 -95 -116 -40 -47 -107 -132 -149
-190 -43 -58 -80 -107 -82 -109 -2 -2 4 18 13 45 9 27 20 52 25 55 6 3 9 9 9
13 -2 17 1 24 20 44 11 12 25 19 31 16 7 -4 8 -2 4 5 -4 6 -12 9 -17 6 -5 -4
-4 5 3 20 9 19 14 22 21 13 6 -9 7 -7 3 6 -6 18 73 140 131 202 12 14 22 27
22 30 -2 14 205 252 214 247 6 -3 8 -2 4 3 -5 9 87 122 228 278 35 39 73 83
85 98 11 15 27 27 33 25 7 -1 11 4 9 12 -4 19 19 43 35 37 8 -3 11 -1 8 5 -6
9 23 48 100 134 20 22 34 35 31 28 -4 -6 -2 -14 3 -17 5 -4 8 2 6 11 -3 23 33
75 47 67 6 -4 8 -3 5 3 -7 12 51 85 63 78 4 -3 7 1 6 8 0 7 13 29 29 48 23 26
44 38 80 46 28 5 51 11 52 12 2 0 -13 -21 -33 -48z m9406 4 c11 -10 18 -25 15
-32 -2 -8 -1 -12 4 -9 5 3 42 -33 82 -81 128 -152 339 -397 376 -435 19 -20
32 -42 28 -48 -4 -6 -1 -9 7 -8 7 2 12 -3 10 -10 -1 -8 2 -11 7 -8 12 8 73
-69 63 -79 -4 -5 -2 -5 4 -2 15 9 48 -29 38 -44 -4 -7 -3 -10 3 -6 13 8 57
-39 49 -52 -4 -7 -1 -8 8 -5 15 6 21 -6 17 -29 -1 -5 3 -6 8 -3 12 8 112 -115
104 -127 -3 -6 -1 -7 5 -3 11 7 79 -80 74 -96 -1 -5 2 -7 7 -3 13 7 30 -25 24
-45 -4 -12 -3 -12 5 -2 7 10 18 1 46 -37 21 -29 34 -56 30 -62 -4 -7 -3 -9 3
-6 10 6 61 -63 93 -123 13 -25 13 -25 -8 -6 -12 10 -19 22 -17 26 3 5 1 10 -4
12 -19 7 -100 112 -94 121 3 6 1 7 -4 4 -6 -4 -16 0 -23 8 -7 8 -9 15 -6 15 4
0 -4 10 -18 23 -35 32 -286 325 -286 334 0 5 5 1 11 -7 7 -10 9 -11 7 -2 -2 8
-8 13 -13 13 -17 0 -76 63 -71 76 3 7 0 12 -7 10 -7 -1 -11 4 -9 11 1 8 -1 11
-6 8 -10 -6 -168 174 -164 187 1 5 -2 6 -7 2 -6 -3 -15 3 -21 14 -6 11 -22 33
-36 48 -15 15 -52 60 -83 98 -31 39 -63 75 -71 81 -12 10 -12 14 0 30 14 17
13 18 -2 6 -14 -11 -23 -5 -67 49 -27 34 -47 67 -44 72 3 6 1 7 -5 3 -14 -9
-42 32 -35 53 4 12 3 13 -4 3 -8 -10 -12 -10 -22 2 -7 8 -9 21 -5 27 4 7 3 9
-4 5 -10 -6 -42 29 -42 45 0 13 29 3 50 -16z m-7171 -261 c85 -60 60 -281 -38
-333 -18 -10 -29 -10 -51 -1 -90 37 -86 256 6 329 32 25 52 26 83 5z m4949 -9
c16 -14 37 -44 47 -67 22 -57 23 -163 1 -206 -65 -125 -186 -34 -186 140 0 68
18 119 51 142 32 22 53 20 87 -9z m-6018 -1726 c124 -28 273 -128 459 -306
l113 -108 -16 -30 c-22 -42 -20 -113 4 -152 13 -22 44 -45 98 -72 65 -33 92
-54 153 -123 221 -246 449 -546 743 -973 105 -153 140 -216 341 -622 123 -249
228 -453 232 -453 5 0 35 22 68 50 33 27 65 50 72 50 27 0 91 -96 118 -180
188 -580 456 -971 770 -1125 138 -67 195 -80 370 -80 143 1 154 2 245 33 145
50 237 110 365 237 136 135 226 267 335 490 84 171 145 328 204 519 20 66 38
121 40 124 3 2 33 -20 68 -49 l63 -52 186 379 c171 349 197 396 319 574 349
509 569 802 808 1071 82 94 102 110 158 134 86 36 109 69 110 154 l1 64 136
128 c194 181 282 246 400 293 244 97 480 -21 617 -309 84 -175 147 -444 220
-925 46 -306 106 -619 145 -755 37 -130 98 -249 154 -304 87 -85 226 -153 353
-172 l74 -11 22 -81 c447 -1654 581 -2808 361 -3106 -31 -42 -68 -55 -142 -49
-85 7 -174 47 -341 152 -76 48 -140 85 -142 83 -2 -1 5 -104 16 -227 82 -963
89 -1678 19 -1866 -37 -99 -115 -139 -222 -114 -65 16 -114 39 -259 124 -110
63 -134 75 -125 59 3 -5 10 -154 17 -333 26 -656 -31 -1184 -153 -1413 -45
-85 -64 -97 -156 -97 -121 0 -316 57 -550 160 -52 22 -99 39 -105 37 -7 -3
-20 -54 -30 -113 -26 -152 -76 -330 -142 -502 -209 -546 -543 -1014 -984
-1381 -136 -113 -144 -122 -135 -150 4 -14 -12 -29 -80 -70 -47 -29 -85 -56
-85 -60 0 -3 18 -41 40 -84 72 -142 173 -253 320 -352 307 -208 557 -456 733
-725 173 -265 257 -481 446 -1131 156 -541 277 -776 523 -1022 64 -64 113
-117 109 -117 -19 0 -73 -54 -92 -91 -62 -123 -227 -741 -309 -1163 -127 -655
-207 -1455 -198 -1980 l3 -178 96 -37 c231 -90 433 -244 532 -408 61 -99 88
-197 88 -317 0 -286 -113 -481 -353 -606 l-76 -40 28 67 c48 115 63 215 57
382 -6 173 -25 250 -95 386 -77 150 -201 255 -351 299 -59 17 -151 22 -151 7
0 -5 51 -60 113 -123 122 -121 173 -196 210 -307 18 -56 22 -87 22 -201 -1
-157 -16 -226 -72 -340 -46 -91 -143 -191 -240 -249 -118 -70 -131 -72 -402
-78 -141 -4 -242 -2 -239 3 2 5 21 43 41 84 60 122 88 249 94 425 4 126 2 166
-16 250 -23 116 -84 248 -155 337 -56 71 -158 144 -244 175 -67 24 -192 43
-192 28 0 -4 53 -63 118 -129 175 -181 229 -289 239 -476 8 -151 -42 -377
-109 -489 -38 -65 -120 -142 -183 -172 -69 -33 -106 -36 -247 -14 -325 49
-579 166 -703 322 -144 184 -168 481 -124 1538 39 938 37 1916 -6 2465 -74
934 -285 1707 -604 2213 -40 62 -46 68 -74 65 -55 -6 -56 -20 -3 -235 237
-963 341 -1590 402 -2413 22 -305 32 -1246 13 -1235 -150 89 -457 315 -664
488 -403 337 -737 690 -987 1044 -43 62 -83 115 -88 118 -4 3 -34 -57 -66
-132 -110 -256 -205 -337 -329 -278 -57 27 -200 175 -269 279 -105 160 -159
297 -282 725 -78 270 -238 909 -323 1291 -34 151 -65 283 -69 293 -6 15 -28
-6 -121 -118 -157 -187 -263 -283 -334 -300 -23 -6 -27 -2 -55 72 -65 171 -93
354 -122 798 -22 332 -38 491 -52 518 -5 9 -19 17 -33 17 -21 0 -27 12 -69
138 -213 644 -349 1446 -362 2132 -3 169 -1 248 5 235 6 -11 39 -86 74 -166
254 -578 689 -1063 1208 -1347 77 -43 116 -51 137 -30 29 29 12 55 -95 149
-220 191 -417 405 -563 609 -293 409 -496 859 -577 1280 -15 74 -30 139 -33
143 -4 4 -70 -20 -146 -54 -336 -148 -562 -193 -633 -125 -94 90 -172 400
-200 798 -14 185 -14 589 -1 817 6 96 8 176 6 178 -2 3 -56 -25 -120 -61 -143
-83 -190 -104 -260 -117 -107 -19 -187 27 -220 128 -60 184 -52 900 19 1748
14 160 25 302 25 317 0 26 -4 24 -155 -67 -194 -118 -246 -138 -347 -139 -68
-1 -79 2 -103 24 -146 136 -164 632 -49 1370 68 437 217 1115 368 1673 26 92
46 169 46 170 0 2 35 4 78 4 187 2 394 124 474 280 84 162 151 444 223 948 96
671 198 986 369 1142 59 54 153 108 212 122 54 12 130 13 184 0z m3300 -2052
c0 -2 -17 -19 -37 -38 l-38 -34 34 38 c33 34 41 42 41 34z m400 -22 c13 -14
19 -25 14 -25 -8 1 -50 50 -41 50 2 0 14 -11 27 -25z m24 -53 c2 -4 -4 -8 -14
-8 -10 0 -16 4 -14 8 3 4 9 8 14 8 5 0 11 -4 14 -8z m-554 -41 c0 -5 -7 -12
-16 -15 -14 -5 -15 -4 -4 9 14 17 20 19 20 6z m-45 -31 c-3 -5 -12 -10 -18
-10 -7 0 -6 4 3 10 19 12 23 12 15 0z m10 -20 c-3 -5 -12 -10 -18 -10 -7 0 -6
4 3 10 19 12 23 12 15 0z m-99 -25 c-11 -8 -25 -15 -30 -15 -6 1 0 7 14 15 32
19 40 18 16 0z m-93 -52 c-7 -2 -19 -2 -25 0 -7 3 -2 5 12 5 14 0 19 -2 13 -5z
m650 -18 c-3 -9 -8 -14 -10 -11 -3 3 -2 9 2 15 9 16 15 13 8 -4z m902 -25 c-3
-5 -12 -10 -18 -10 -7 0 -6 4 3 10 19 12 23 12 15 0z m-172 -7 c-7 -2 -21 -2
-30 0 -10 3 -4 5 12 5 17 0 24 -2 18 -5z m-1566 -29 c-3 -3 -12 -4 -19 -1 -8
3 -5 6 6 6 11 1 17 -2 13 -5z m1486 -1 c-7 -2 -19 -2 -25 0 -7 3 -2 5 12 5 14
0 19 -2 13 -5z m215 -99 c-3 -14 -5 -12 -10 9 -3 19 -2 25 4 19 6 -6 8 -18 6
-28z m-1855 -75 c-6 -6 -7 3 -4 23 4 28 6 29 9 9 2 -13 0 -27 -5 -32z m1835
10 c10 -13 10 -18 -1 -22 -8 -3 -14 4 -15 21 -1 14 -1 24 1 21 1 -2 8 -11 15
-20z m-1807 -12 c-10 -9 -11 -8 -5 6 3 10 9 15 12 12 3 -3 0 -11 -7 -18z
m1799 -62 c0 -5 -5 -3 -10 5 -5 8 -10 20 -10 25 0 6 5 3 10 -5 5 -8 10 -19 10
-25z m-83 -37 c-3 -8 -6 -5 -6 6 -1 11 2 17 5 13 3 -3 4 -12 1 -19z m28 -160
c-63 -192 -123 -338 -200 -486 -225 -432 -516 -612 -820 -510 -236 79 -445
343 -618 783 -76 194 -140 401 -105 340 7 -11 12 -22 12 -25 -1 -14 82 -180
121 -244 25 -41 45 -77 45 -80 0 -14 63 -91 72 -88 5 1 7 -2 3 -8 -17 -27 213
-262 247 -252 5 1 7 -1 4 -6 -7 -11 89 -67 171 -99 62 -25 80 -27 209 -28 98
0 145 4 156 12 8 7 17 10 20 8 9 -9 59 15 53 25 -3 5 0 7 8 5 30 -12 194 85
181 107 -3 4 1 5 9 3 16 -7 153 130 151 150 -1 8 2 13 6 10 14 -9 160 194 160
222 0 6 3 13 8 15 4 2 15 19 24 38 10 19 22 42 28 50 11 17 60 121 60 128 0 2
-6 -1 -14 -7 -12 -10 -13 -9 -9 8 3 11 10 18 17 15 7 -3 17 11 25 31 7 20 15
34 18 31 3 -3 -16 -69 -42 -148z m-794 19 c-10 -9 -11 -8 -5 6 3 10 9 15 12
12 3 -3 0 -11 -7 -18z m19 -87 c-6 -11 -13 -20 -16 -20 -2 0 0 9 6 20 6 11 13
20 16 20 2 0 0 -9 -6 -20z m674 -5 c-4 -8 -8 -15 -10 -15 -2 0 -4 7 -4 15 0 8
4 15 10 15 5 0 7 -7 4 -15z m-1504 -40 c0 -5 -5 -3 -10 5 -5 8 -10 20 -10 25
0 6 5 3 10 -5 5 -8 10 -19 10 -25z m627 -47 c-3 -8 -6 -5 -6 6 -1 11 2 17 5
13 3 -3 4 -12 1 -19z m842 19 c-2 -1 -12 -9 -22 -16 -15 -12 -17 -12 -11 3 3
9 13 16 22 16 8 0 13 -1 11 -3z m-29 -92 c0 -12 -19 -12 -23 0 -4 9 -1 12 9 8
7 -3 14 -7 14 -8z m-620 -60 c0 -5 -5 -3 -10 5 -5 8 -10 20 -10 25 0 6 5 3 10
-5 5 -8 10 -19 10 -25z m-30 16 c0 -5 -7 -12 -16 -15 -14 -5 -15 -4 -4 9 14
17 20 19 20 6z m-136 -9 c3 -5 -1 -9 -9 -9 -8 0 -12 4 -9 9 3 4 7 8 9 8 2 0 6
-4 9 -8z m71 -54 c-9 -6 -19 -7 -22 -4 -4 3 -1 6 6 6 7 0 9 4 6 10 -4 6 1 7
11 3 15 -6 15 -7 -1 -15z m639 7 c-4 -8 -11 -15 -16 -15 -6 0 -5 6 2 15 7 8
14 15 16 15 2 0 1 -7 -2 -15z m-105 -95 c0 -10 -3 -8 -9 5 -12 27 -12 43 0 25
5 -8 9 -22 9 -30z m-911 -59 c3 -8 -1 -12 -9 -9 -7 2 -15 10 -17 17 -3 8 1 12
9 9 7 -2 15 -10 17 -17z m860 12 c-10 -2 -18 -9 -18 -14 0 -5 -5 -9 -11 -9 -8
0 -8 5 1 15 7 8 20 14 29 14 13 -1 13 -2 -1 -6z m-98 -107 c0 -2 -7 -7 -16
-10 -8 -3 -12 -2 -9 4 6 10 25 14 25 6z m-80 -50 c0 -2 -9 -6 -20 -9 -11 -3
-20 -1 -20 4 0 5 9 9 20 9 11 0 20 -2 20 -4z m11462 -1662 c740 -103 1702
-696 2613 -1611 l201 -202 69 60 c147 126 326 228 440 251 87 17 136 -1 216
-81 195 -196 323 -701 380 -1506 14 -193 17 -818 5 -972 -9 -121 -18 -115 121
-82 253 60 473 21 589 -103 99 -106 154 -317 154 -595 0 -712 -493 -1714
-1290 -2622 -88 -101 -160 -184 -158 -186 2 -1 80 5 173 12 226 19 454 12 558
-16 100 -26 173 -66 203 -111 43 -62 28 -183 -37 -311 -231 -458 -1117 -932
-2276 -1217 -172 -42 -313 -79 -313 -82 1 -3 35 -20 78 -39 264 -119 379 -179
435 -231 95 -87 108 -133 58 -211 -111 -177 -460 -295 -1011 -345 -288 -25
-819 -20 -1107 12 -35 3 -53 2 -53 -5 0 -6 48 -82 106 -169 149 -221 227 -390
240 -520 9 -82 -7 -99 -114 -117 -308 -54 -895 -44 -1694 29 -136 12 -250 25
-254 28 -3 3 1 55 10 115 42 294 65 573 73 871 3 133 9 242 12 242 3 -1 24
-17 46 -36 266 -235 435 -343 622 -396 113 -32 271 -32 373 0 190 60 265 131
316 297 27 89 25 362 -3 500 -12 55 -19 102 -18 104 2 2 53 -20 114 -48 367
-171 740 -291 1014 -327 328 -43 566 45 600 223 20 102 -62 277 -217 468 -66
81 -270 291 -335 343 -24 20 -39 38 -33 40 5 1 54 -8 108 -22 155 -39 485
-103 639 -125 286 -41 360 -46 665 -46 248 0 325 3 412 18 300 51 486 133 621
276 79 84 105 142 87 196 -27 81 -110 145 -277 214 -172 70 -435 137 -711 181
l-73 12 118 91 c425 333 851 752 1153 1137 427 546 632 1026 631 1480 0 208
-45 418 -98 459 -93 74 -358 -55 -694 -336 -56 -46 -103 -83 -105 -80 -2 2 3
41 11 88 48 277 113 841 141 1229 19 267 22 764 5 935 -38 392 -123 614 -263
690 -55 30 -88 30 -155 -2 -96 -45 -286 -267 -432 -504 l-71 -115 -197 196
c-218 216 -395 363 -608 505 -368 244 -719 392 -1100 461 -79 15 -152 19 -340
19 -211 0 -254 -3 -353 -23 -159 -32 -277 -73 -429 -147 -360 -176 -615 -473
-746 -866 -61 -181 -72 -252 -72 -459 0 -165 3 -197 27 -295 28 -118 88 -280
142 -382 l34 -63 -55 0 c-155 0 -387 -44 -531 -101 -226 -90 -408 -209 -632
-413 -121 -111 -206 -156 -294 -156 -79 1 -128 23 -188 87 -90 97 -149 259
-169 461 -15 147 -6 594 15 747 46 345 119 622 212 808 24 48 44 90 44 95 0 4
-28 25 -63 46 -108 69 -219 160 -309 254 -159 168 -182 261 -102 413 128 244
457 424 987 543 444 100 1131 153 1646 127 123 -7 226 -9 229 -7 2 3 -14 65
-37 139 -131 422 -116 741 35 787 45 13 113 11 236 -6z m-5995 -636 c10 -29
18 -57 18 -63 0 -5 2 -12 5 -15 3 -3 20 -36 37 -75 86 -194 105 -238 108 -249
1 -6 32 -73 69 -149 37 -76 64 -143 60 -149 -4 -6 -3 -8 3 -5 5 3 25 -27 45
-67 28 -57 34 -76 26 -92 -9 -15 -8 -17 2 -7 11 10 26 -12 83 -120 37 -72 69
-136 70 -142 1 -5 10 -18 20 -29 9 -11 18 -23 18 -28 3 -19 6 -25 30 -63 14
-22 39 -65 56 -95 16 -30 46 -82 66 -114 20 -33 33 -64 30 -70 -3 -6 -3 -8 2
-4 4 4 28 -27 53 -70 24 -42 54 -93 67 -112 89 -140 124 -203 119 -212 -4 -6
-3 -8 2 -5 9 5 59 -57 59 -73 0 -4 8 -14 18 -24 9 -10 17 -23 17 -31 0 -7 4
-15 8 -17 14 -5 93 -128 88 -136 -3 -4 0 -14 6 -22 8 -12 8 -11 3 5 -7 22 2
15 19 -14 6 -10 26 -40 45 -67 19 -26 34 -53 34 -60 0 -7 4 -11 9 -8 4 3 11
-3 15 -13 4 -10 24 -40 45 -66 21 -27 35 -54 31 -59 -3 -7 -1 -8 5 -4 7 4 12
3 12 -2 0 -5 25 -44 56 -87 31 -43 57 -84 58 -91 1 -8 6 -17 11 -21 4 -4 5 -2
1 5 -4 6 -5 12 -3 12 3 0 19 -21 35 -47 17 -27 56 -81 86 -122 31 -41 53 -79
49 -85 -3 -6 -3 -8 2 -4 7 7 65 -63 65 -79 0 -5 14 -21 31 -37 16 -17 27 -36
24 -43 -2 -8 -1 -12 3 -9 4 2 43 -45 87 -105 44 -60 97 -132 118 -158 38 -50
46 -68 25 -55 -7 4 -8 3 -4 -5 4 -6 11 -9 16 -6 9 6 83 -93 83 -112 0 -7 2
-11 5 -8 9 9 43 -45 36 -56 -4 -7 -3 -9 4 -5 11 7 59 -63 54 -79 -2 -5 0 -7 4
-3 7 7 62 -63 55 -70 -1 -2 5 -9 15 -16 11 -8 14 -18 9 -26 -5 -9 -4 -11 3 -6
7 4 53 -56 122 -158 60 -91 110 -168 110 -171 0 -3 16 -27 36 -55 20 -28 32
-55 28 -61 -5 -8 -3 -9 6 -4 10 6 12 4 7 -9 -4 -9 -3 -15 2 -11 13 7 54 -62
45 -76 -4 -7 -3 -9 3 -6 13 8 86 -111 77 -125 -4 -6 -3 -8 3 -5 5 3 18 -9 29
-28 10 -18 46 -80 78 -137 61 -106 115 -202 180 -321 20 -37 34 -73 30 -79 -4
-6 -3 -8 3 -5 12 8 46 -61 37 -75 -5 -7 -2 -8 6 -3 10 6 12 4 7 -9 -4 -9 -3
-15 1 -12 12 7 74 -123 66 -136 -5 -7 -2 -8 6 -3 10 6 12 4 7 -9 -4 -9 -3 -15
1 -12 9 5 85 -146 85 -170 0 -7 4 -14 7 -14 12 0 51 -100 44 -112 -4 -6 -3 -8
3 -5 12 8 45 -71 36 -86 -4 -6 -1 -7 7 -2 10 6 12 3 8 -13 -4 -12 -3 -20 2
-17 7 5 29 -37 34 -66 1 -8 10 -29 20 -48 10 -19 29 -62 41 -95 13 -34 43
-113 68 -176 50 -131 105 -288 110 -316 2 -11 11 -36 20 -58 9 -21 23 -62 31
-90 8 -28 30 -105 51 -171 77 -250 237 -947 221 -963 -3 -2 -1 -15 4 -28 9
-23 51 -302 49 -326 0 -7 -14 47 -30 121 -16 74 -27 137 -24 139 3 3 0 10 -5
17 -5 7 -12 25 -14 41 -2 16 -6 36 -10 45 -4 9 -8 27 -10 40 -2 13 -6 31 -9
39 -3 8 -18 62 -33 120 -128 504 -353 1139 -573 1613 -22 48 -38 87 -35 87 2
0 -8 18 -22 40 -15 22 -24 46 -20 55 3 9 2 14 -3 11 -6 -4 -31 32 -36 54 0 3
-9 20 -18 38 -10 18 -15 38 -11 45 4 7 3 8 -2 4 -4 -5 -20 16 -35 45 -14 29
-61 116 -104 193 -43 77 -97 174 -120 215 -53 95 -80 141 -194 322 -53 85 -89
153 -85 159 4 7 3 9 -4 5 -6 -3 -20 7 -32 24 -18 25 -19 34 -10 45 7 8 17 12
23 8 6 -4 7 -1 3 6 -6 9 -12 9 -25 -3 -16 -14 -22 -9 -74 70 -32 46 -55 89
-52 95 4 5 2 8 -4 7 -13 -4 -62 63 -54 75 3 6 2 7 -4 4 -5 -3 -34 28 -63 71
-30 42 -69 96 -88 119 -18 23 -31 47 -27 53 4 6 2 9 -3 8 -15 -5 -105 110 -96
123 4 7 3 9 -3 6 -14 -9 -146 161 -137 175 4 6 3 8 -4 4 -12 -7 -75 68 -64 78
4 4 2 6 -3 4 -6 -2 -10 0 -10 4 0 3 -12 16 -27 28 -16 12 -28 26 -28 32 0 6
-8 18 -18 27 -42 38 -172 212 -166 223 4 6 3 8 -3 5 -16 -10 -187 209 -177
225 3 5 1 7 -4 6 -15 -4 -164 191 -156 204 4 6 3 8 -3 5 -6 -4 -33 24 -60 61
-28 37 -84 114 -126 171 -42 57 -74 108 -70 114 3 5 1 7 -5 3 -12 -7 -56 50
-47 63 3 5 0 13 -6 17 -8 5 -9 3 -4 -6 6 -9 4 -11 -4 -6 -7 5 -10 15 -7 23 3
8 2 12 -3 8 -10 -6 -104 122 -104 142 0 7 -4 10 -8 8 -4 -3 -25 23 -47 57 -45
70 -137 207 -150 223 -16 20 -122 186 -122 191 0 3 4 3 9 -1 5 -3 12 -1 16 4
3 6 -3 8 -14 6 -15 -3 -28 11 -55 57 -20 33 -34 64 -30 69 3 5 0 8 -8 7 -7 -2
-13 5 -13 14 0 9 -4 20 -9 25 -5 4 -6 3 -2 -4 4 -7 5 -13 3 -13 -5 0 -47 68
-47 76 0 3 6 2 13 -2 7 -4 9 -3 4 2 -5 5 -13 9 -18 9 -9 0 -44 58 -191 320
-122 217 -170 314 -162 327 5 7 2 8 -6 3 -10 -6 -12 -4 -7 9 5 11 3 15 -5 10
-8 -5 -9 -2 -5 10 4 9 3 15 -2 12 -7 -5 -16 7 -26 34 -1 3 -35 72 -75 154 -40
82 -73 154 -74 160 -2 6 -18 45 -38 86 -19 41 -50 113 -69 158 -33 81 -33 84
-15 98 10 7 24 11 30 7 6 -3 8 -3 5 0 -3 4 19 32 48 63 33 35 68 87 91 135 20
43 38 79 39 79 1 0 10 -24 20 -52z m-10533 -2501 c12 -404 46 -766 125 -1352
11 -77 20 -147 20 -155 1 -8 12 -94 25 -191 63 -451 81 -794 73 -1409 -6 -439
-15 -567 -58 -819 -18 -107 -20 -132 -10 -178 29 -129 190 -173 507 -139 83 9
168 16 189 16 l38 0 -6 -77 c-6 -75 -49 -245 -100 -403 -243 -738 -300 -962
-301 -1172 l-1 -117 -61 -10 c-89 -16 -153 -13 -201 8 -58 27 -77 59 -69 119
4 26 7 55 7 65 0 9 3 16 7 13 4 -2 7 9 8 25 2 52 56 200 71 195 10 -4 11 -1 5
12 -11 21 39 157 52 145 5 -4 6 -3 3 3 -9 15 33 115 44 108 5 -3 6 3 2 12 -4
12 -3 15 5 10 7 -4 10 -2 6 7 -4 12 7 44 51 142 12 28 27 66 85 215 52 135 64
283 30 359 -11 23 -17 48 -13 54 3 5 1 7 -5 3 -14 -9 -63 14 -55 27 3 6 2 7
-4 4 -9 -6 -119 9 -153 20 -8 3 -43 7 -77 9 -34 2 -81 8 -105 14 -24 6 -60 13
-80 15 -20 2 -65 14 -100 26 -136 45 -166 85 -148 193 7 36 16 63 21 60 5 -3
6 2 3 10 -5 14 38 249 53 286 3 8 6 18 5 22 -1 3 12 84 28 180 58 346 81 621
83 988 2 260 -8 613 -17 628 -2 4 -7 55 -10 112 -3 58 -10 148 -16 200 -44
433 -65 992 -50 1385 6 165 13 314 15 330 2 17 7 66 11 110 6 75 10 112 13
126 0 3 12 4 24 2 l24 -5 7 -231z m16566 -1151 c0 -5 -13 3 -30 19 -16 16 -30
30 -30 32 0 2 14 -6 30 -19 17 -12 30 -26 30 -32z m191 -196 c415 -500 530
-1205 308 -1890 -53 -163 -192 -471 -249 -551 -11 -15 -20 -30 -20 -33 0 -8
-159 -245 -199 -296 -61 -78 -105 -125 -114 -122 -5 1 -6 -2 -2 -7 11 -19
-291 -324 -313 -316 -7 3 -10 0 -7 -5 8 -13 -57 -71 -73 -65 -7 3 -10 1 -7 -4
10 -18 -228 -200 -445 -341 -83 -54 -117 -75 -195 -119 -167 -95 -525 -261
-564 -261 -10 0 -29 91 -35 167 -4 47 -2 54 17 65 21 11 21 10 7 -8 -8 -10 -1
-7 15 7 35 31 92 62 103 55 4 -3 14 0 22 6 12 8 12 9 -2 4 -30 -9 -20 1 23 23
22 12 45 18 51 15 7 -5 8 -2 3 6 -6 10 -4 12 9 7 10 -4 15 -3 11 3 -7 12 32
33 47 24 7 -4 8 -3 4 4 -10 16 6 15 24 0 12 -11 12 -10 1 4 -11 15 -11 19 5
25 11 3 21 10 24 14 3 3 21 15 40 25 19 11 84 52 144 92 61 42 114 71 123 68
8 -3 12 -2 8 3 -7 13 45 52 58 44 5 -3 7 -1 3 5 -6 10 62 59 77 54 5 -1 6 2 3
7 -3 5 20 28 52 52 74 55 164 130 178 148 7 8 16 11 24 6 8 -5 11 -4 7 2 -8
13 36 55 54 51 7 -2 13 4 14 12 1 8 6 14 12 13 6 -1 10 5 9 15 0 10 6 16 16
16 10 -1 16 2 13 6 -5 8 34 46 44 43 3 -2 6 1 6 6 0 13 14 26 27 26 6 0 12 8
14 18 4 27 11 32 28 18 10 -9 16 -9 21 -1 4 6 4 14 1 17 -3 4 -6 1 -6 -6 0 -7
-4 -9 -10 -6 -13 8 31 67 46 61 6 -2 11 3 10 12 0 10 5 16 14 14 8 -2 12 0 8
3 -9 10 9 45 24 45 6 0 5 -7 -3 -17 -13 -17 -13 -17 7 0 11 9 23 15 26 12 2
-3 5 2 5 10 0 11 -4 12 -14 4 -9 -8 -13 -8 -13 -1 0 6 5 14 10 17 6 4 28 29
49 55 21 27 41 47 45 44 3 -2 4 -1 1 2 -8 12 16 45 28 38 7 -4 9 -4 5 1 -9 10
50 97 61 90 5 -2 8 3 7 13 0 9 4 16 11 15 7 -2 10 3 8 10 -3 6 5 23 16 37 11
14 18 20 15 13 -4 -6 -2 -14 3 -18 6 -3 8 3 6 15 -2 12 18 55 51 107 31 49 64
107 75 131 12 26 24 40 31 36 7 -5 8 -3 3 5 -4 7 6 39 23 74 35 72 85 180 86
187 4 28 31 88 37 84 5 -3 6 2 3 11 -4 9 1 37 11 63 9 26 18 52 20 57 1 6 3
12 4 15 16 46 59 265 67 338 3 40 9 74 13 76 10 7 4 385 -8 471 -6 44 -13 96
-15 115 -3 19 -19 89 -37 155 -18 66 -33 130 -33 142 -1 11 -4 19 -8 17 -3 -2
-12 13 -19 33 -7 21 -31 80 -55 131 -24 50 -41 92 -38 92 3 0 -4 10 -16 22
-11 12 -20 25 -20 29 0 4 -6 14 -12 21 -7 7 -25 29 -39 48 -15 19 -41 50 -58
67 -17 18 -31 36 -31 40 0 10 121 -116 181 -187z m-7031 -960 c11 -69 31 -177
44 -239 14 -63 23 -118 20 -122 -2 -4 0 -10 5 -13 8 -5 21 -54 27 -101 0 -5 4
-17 7 -25 9 -23 68 -258 71 -283 1 -13 5 -27 8 -33 7 -10 48 -175 53 -209 1
-11 5 -27 8 -35 15 -40 77 -337 101 -490 23 -140 46 -371 46 -459 -1 -142 -45
-311 -80 -303 -6 1 -9 -2 -6 -7 10 -16 -22 -32 -71 -36 -50 -4 -147 9 -343 45
-133 26 -210 23 -267 -10 -50 -28 -70 -57 -88 -127 -30 -118 -37 -205 -40
-468 -3 -348 9 -479 100 -1090 24 -159 47 -324 50 -366 7 -88 1 -94 -70 -83
-64 9 -68 14 -49 65 23 64 20 220 -6 349 -11 58 -39 174 -61 259 -22 84 -38
160 -35 168 3 8 2 12 -3 9 -9 -6 -93 326 -96 380 -1 17 -5 35 -8 40 -3 5 -13
59 -23 119 -13 77 -18 165 -19 295 0 162 3 197 24 282 14 58 28 95 34 91 6 -3
7 -1 3 5 -9 16 51 119 95 162 61 59 122 84 216 88 105 5 188 -19 321 -92 191
-106 271 -112 306 -24 27 67 15 232 -29 408 -8 30 -16 66 -19 80 -2 14 -21 86
-41 160 -20 74 -38 144 -39 155 -2 11 -6 27 -10 36 -4 9 -8 27 -10 40 -2 13
-6 31 -9 39 -11 28 -66 268 -81 357 -38 218 -66 623 -65 932 0 108 2 192 4
186 3 -5 13 -66 25 -135z m-8064 -3140 c51 -153 131 -262 223 -303 34 -16 66
-21 121 -21 89 1 160 25 253 87 l62 42 112 -445 c274 -1095 383 -1367 663
-1651 135 -137 245 -197 380 -206 127 -9 233 32 336 129 l52 49 61 -71 61 -71
0 -382 c0 -1056 -60 -1855 -171 -2286 -153 -596 -395 -895 -805 -1000 -130
-33 -260 -42 -554 -39 l-275 3 -68 33 c-122 60 -222 184 -270 337 -27 85 -49
236 -42 291 14 116 115 255 252 346 66 45 301 173 436 239 37 18 67 39 67 45
0 20 -109 27 -216 14 -373 -45 -687 -264 -775 -540 -62 -196 -17 -515 100
-710 22 -36 39 -66 38 -66 -1 -1 -123 1 -272 5 l-270 7 -62 33 c-232 124 -363
335 -367 591 -1 87 2 101 30 160 68 143 177 227 512 394 116 58 212 110 212
115 0 16 -88 24 -194 18 -251 -15 -498 -126 -657 -294 -73 -78 -117 -155 -149
-261 -20 -64 -22 -90 -18 -210 5 -160 28 -258 89 -379 21 -42 37 -78 36 -79
-7 -7 -168 70 -216 103 -163 113 -257 366 -217 590 22 127 72 219 170 318 169
171 417 294 769 380 112 28 323 65 367 65 11 0 16 17 35 125 65 380 71 1026
14 1599 -64 645 -215 1373 -415 1996 -25 80 -46 157 -46 171 1 41 96 287 171
444 95 198 188 349 330 538 l35 48 24 -113 c13 -62 35 -147 48 -188z m7969
-179 c122 -185 209 -294 345 -435 184 -189 334 -302 527 -393 79 -38 108 -46
153 -46 88 0 167 51 198 129 6 16 23 81 37 145 45 204 81 305 127 355 55 60
126 82 206 64 87 -19 135 -75 197 -230 60 -153 197 -427 285 -573 167 -277
458 -610 585 -668 81 -37 189 -15 249 51 36 40 51 80 81 225 16 72 22 85 64
126 54 55 110 74 186 65 73 -8 121 -47 175 -139 336 -581 558 -911 815 -1212
123 -143 310 -328 420 -415 44 -34 81 -66 83 -71 5 -12 -87 -316 -142 -472
-162 -457 -402 -982 -636 -1392 -148 -258 -276 -422 -455 -585 -259 -235 -601
-408 -948 -481 -106 -22 -108 -22 -165 -5 -133 42 -281 138 -352 228 -115 145
-181 382 -151 543 32 173 162 318 450 503 81 52 90 60 76 72 -13 11 -34 11
-114 2 -266 -31 -484 -177 -595 -399 -51 -101 -68 -172 -73 -308 -8 -204 41
-387 146 -548 26 -40 55 -78 65 -86 9 -8 22 -23 28 -34 10 -20 8 -20 -243 -14
-140 4 -282 11 -316 16 -78 12 -130 46 -243 160 -138 139 -205 275 -236 474
-18 120 -12 203 21 299 54 157 182 283 523 512 56 38 102 73 102 77 0 18 -139
9 -232 -15 -222 -56 -426 -193 -555 -373 -167 -234 -177 -628 -23 -933 17 -33
27 -60 23 -60 -5 0 -48 20 -96 45 -280 141 -407 318 -408 571 -1 185 47 340
154 499 64 96 229 252 351 334 175 116 426 234 599 281 136 36 565 80 977 100
235 11 574 36 625 47 l29 5 -38 20 c-116 59 -401 133 -636 165 -186 25 -651
25 -790 1 -52 -10 -95 -16 -95 -15 -1 1 -47 61 -102 132 -466 606 -864 1348
-1096 2045 -76 229 -117 370 -118 416 -6 141 -25 315 -64 573 -48 317 -80 574
-90 711 -4 71 -3 82 7 66 7 -10 54 -80 103 -155z m-655 -1336 c125 -63 213
-87 339 -94 l115 -6 47 -150 c171 -550 425 -1101 747 -1624 102 -165 310 -472
395 -581 28 -36 54 -70 59 -76 5 -7 -23 -24 -84 -49 -205 -84 -426 -212 -572
-332 -32 -26 -68 -56 -80 -65 -52 -41 -797 -50 -1176 -13 -153 14 -156 15
-242 60 l-88 46 0 82 c0 45 5 170 10 277 45 854 191 1726 407 2430 36 118 41
130 49 130 2 0 36 -16 74 -35z m-4398 -1590 c151 -270 354 -583 535 -824 51
-69 90 -128 86 -131 -5 -4 -46 -22 -93 -41 -177 -69 -411 -204 -545 -312 -138
-112 -267 -254 -351 -388 -25 -41 -43 -65 -40 -54 10 39 46 353 61 540 25 321
35 571 41 1040 3 248 7 460 10 473 4 21 16 12 119 -85 103 -97 122 -120 177
-218z m788 -541 c85 -55 165 -106 178 -113 19 -10 22 -20 22 -69 0 -91 -10
-131 -33 -138 -14 -4 -26 1 -39 17 -143 184 -318 426 -298 414 8 -5 85 -55
170 -111z m175 -801 c-4 -104 -10 -191 -14 -194 -3 -4 -42 -14 -85 -24 -101
-22 -190 -55 -293 -110 -313 -166 -459 -422 -440 -773 9 -166 52 -324 118
-436 11 -20 17 -36 12 -36 -4 0 -48 20 -96 45 -274 138 -407 325 -407 573 0
392 262 730 755 972 112 56 411 168 448 170 5 0 5 -84 2 -187z m-13 -505 c-5
-398 18 -656 73 -820 45 -132 153 -283 270 -376 l40 -32 -105 0 c-166 0 -379
19 -414 37 -59 30 -167 126 -230 205 -121 150 -175 298 -183 499 -6 136 5 196
53 290 36 73 134 187 221 261 87 73 250 188 267 188 8 0 10 -79 8 -252z"/>
<path d="M14001 33307 c-8 -10 -7 -14 2 -14 8 0 14 6 14 14 0 7 -1 13 -2 13
-2 0 -8 -6 -14 -13z"/>
<path d="M10243 31405 c0 -8 4 -12 9 -9 5 3 6 10 3 15 -9 13 -12 11 -12 -6z"/>
<path d="M10097 31379 c7 -7 15 -10 18 -7 3 3 -2 9 -12 12 -14 6 -15 5 -6 -5z"/>
<path d="M10059 31293 c-13 -16 -12 -17 4 -4 16 13 21 21 13 21 -2 0 -10 -8
-17 -17z"/>
<path d="M22807 31719 c7 -7 15 -10 18 -7 3 3 -2 9 -12 12 -14 6 -15 5 -6 -5z"/>
<path d="M14305 31091 c-3 -5 -2 -12 3 -15 5 -3 9 1 9 9 0 17 -3 19 -12 6z"/>
<path d="M14220 30969 c0 -5 5 -7 10 -4 6 3 10 8 10 11 0 2 -4 4 -10 4 -5 0
-10 -5 -10 -11z"/>
<path d="M13686 30532 c-3 -5 1 -9 9 -9 8 0 12 4 9 9 -3 4 -7 8 -9 8 -2 0 -6
-4 -9 -8z"/>
<path d="M19807 30449 c7 -7 15 -10 18 -7 3 3 -2 9 -12 12 -14 6 -15 5 -6 -5z"/>
<path d="M13530 30396 c0 -2 8 -10 18 -17 15 -13 16 -12 3 4 -13 16 -21 21
-21 13z"/>
<path d="M19856 30368 c3 -5 10 -6 15 -3 13 9 11 12 -6 12 -8 0 -12 -4 -9 -9z"/>
<path d="M11849 28167 c6 -8 9 -16 6 -19 -3 -2 2 -5 10 -5 13 0 13 3 -2 19
-19 21 -31 25 -14 5z"/>
<path d="M11716 28022 c-3 -5 1 -9 9 -9 8 0 12 4 9 9 -3 4 -7 8 -9 8 -2 0 -6
-4 -9 -8z"/>
<path d="M11408 27628 c-10 -10 -14 -18 -9 -18 10 0 36 29 30 34 -2 1 -12 -6
-21 -16z"/>
<path d="M11343 27585 c0 -8 4 -12 9 -9 5 3 6 10 3 15 -9 13 -12 11 -12 -6z"/>
<path d="M11256 27448 c3 -5 10 -6 15 -3 13 9 11 12 -6 12 -8 0 -12 -4 -9 -9z"/>
<path d="M22186 27382 c-3 -5 1 -9 9 -9 8 0 12 4 9 9 -3 4 -7 8 -9 8 -2 0 -6
-4 -9 -8z"/>
<path d="M23560 18421 c0 -7 -5 -9 -12 -5 -7 5 -8 3 -3 -5 5 -9 10 -10 18 -2
6 6 8 14 4 18 -4 3 -7 1 -7 -6z"/>
<path d="M23769 18122 c5 -10 18 -25 27 -33 11 -9 9 -2 -6 19 -26 35 -36 42
-21 14z"/>
<path d="M24536 17062 c-3 -5 1 -9 9 -9 8 0 12 4 9 9 -3 4 -7 8 -9 8 -2 0 -6
-4 -9 -8z"/>
<path d="M12433 13573 c0 -9 4 -10 14 -2 7 6 13 12 13 14 0 1 -6 2 -13 2 -8 0
-14 -6 -14 -14z"/>
<path d="M28510 14425 c0 -7 30 -13 34 -7 3 4 -4 9 -15 9 -10 1 -19 0 -19 -2z"/>
<path d="M28446 14262 c-3 -5 1 -9 9 -9 8 0 12 4 9 9 -3 4 -7 8 -9 8 -2 0 -6
-4 -9 -8z"/>
<path d="M27976 13701 c-4 -5 -2 -12 3 -15 5 -4 12 -2 15 3 4 5 2 12 -3 15 -5
4 -12 2 -15 -3z"/>
</g>
</svg>
